# xmcd
#
# Track frame offsets: 
#        183
#        11968
#        22688
#        40250
#        50973
#        62488
#        73193
#        80818
#        94150
#        107685
#        119168
#        129463
#        140160
#
# Disc length: 1995 seconds
#
# Revision: 3
# Processed by: cddbd v1.5.2PL0 Copyright (c) Steve Scherf et al.
# Submitted via: ExactAudioCopy v0.99pb5
#
DISCID=c307c90d
DTITLE=Various Artist - COUNTRY AND WESTERN - VOLUME TWO
DYEAR=1987
DGENRE=Country
TTITLE0=WILLIE NELSON - Is There Something On Your Mind
TTITLE1=WAYLON JENNINGS - Sally Was A Good Old Girl
TTITLE2=JOHNNY PAYCHECK - Billy Jack Washburn
TTITLE3=BILLY JO SPEARS - I'm So Lonesome I Could Cry
TTITLE4=KENNY ROGERS - Me And Bobby Magee
TTITLE5=STONEWALL JACKSON - Waterloo
TTITLE6=DOLLY PARTON - Puppy Love
TTITLE7=FARON YOUNG - There Goes My Everything
TTITLE8=KENNY ROGERS - Shine On Ruby Mountain
TTITLE9=CHARLIE RICH - Little Bit Sweet
TTITLE10=WILLIE NELSON - Broken Promises
TTITLE11=TEX RITTEN - Have I Stayed Away Too Long
TTITLE12=DAVE DUDLEY - Last Day In The Mines
EXTD=
EXTT0=
EXTT1=
EXTT2=
EXTT3=
EXTT4=
EXTT5=
EXTT6=
EXTT7=
EXTT8=
EXTT9=
EXTT10=
EXTT11=
EXTT12=
PLAYORDER=
